<svg xmlns="http://www.w3.org/2000/svg" width="1056" height="816" viewBox="0 0 1056 816" fill="none">
<path d="M477.924 426.548L540.878 459.482L578.651 397.405L509.401 399.231L477.924 426.548Z" stroke="black" stroke-width="0.359192" stroke-miterlimit="10" stroke-linecap="square"/>
<path d="M251 219.962L313.955 238.113L351.727 180.586L282.477 180.657L251 219.962Z" stroke="black" stroke-width="0.359192" stroke-miterlimit="10" stroke-linecap="square"/>
<path d="M251 233.212L313.955 251.369L351.727 187.428L282.477 192.095L251 233.212Z" stroke="black" stroke-width="0.359192" stroke-miterlimit="10" stroke-linecap="square"/>
<path d="M251 231.756L313.955 270.595L351.727 195.971L282.477 192.576L251 231.756Z" stroke="black" stroke-width="0.359192" stroke-miterlimit="10" stroke-linecap="square"/>
<path d="M251 245.96L313.955 278.502L351.727 207.243L282.477 203.067L251 245.96Z" stroke="black" stroke-width="0.359192" stroke-miterlimit="10" stroke-linecap="square"/>
<path d="M251 243.276L313.955 281.292L351.727 225.3L282.477 206.377L251 243.276Z" stroke="black" stroke-width="0.359192" stroke-miterlimit="10" stroke-linecap="square"/>
<path d="M251 384.419L313.955 426.559L351.727 358.3L282.477 359.251L251 384.419Z" stroke="black" stroke-width="0.359192" stroke-miterlimit="10" stroke-linecap="square"/>
<path d="M251 407.737L313.955 435.497L351.727 374.062L282.477 359.125L251 407.737Z" stroke="black" stroke-width="0.359192" stroke-miterlimit="10" stroke-linecap="square"/>
<path d="M251 410.876L313.955 442L351.727 382.466L282.477 371.047L251 410.876Z" stroke="black" stroke-width="0.359192" stroke-miterlimit="10" stroke-linecap="square"/>
<path d="M251 414.524L313.955 459.197L351.727 394.844L282.477 388.334L251 414.524Z" stroke="black" stroke-width="0.359192" stroke-miterlimit="10" stroke-linecap="square"/>
<path d="M251 446.877L313.955 466.872L351.727 397.229L282.477 406.448L251 446.877Z" stroke="black" stroke-width="0.359192" stroke-miterlimit="10" stroke-linecap="square"/>
<path d="M251 589.471L313.955 610.089L351.727 547.054L282.477 550.058L251 589.471Z" stroke="black" stroke-width="0.359192" stroke-miterlimit="10" stroke-linecap="square"/>
<path d="M251 595.483L313.955 619.326L351.727 562.659L282.477 544.271L251 595.483Z" stroke="black" stroke-width="0.359192" stroke-miterlimit="10" stroke-linecap="square"/>
<path d="M251 604.441L313.955 628.479L351.727 568.546L282.477 569.294L251 604.441Z" stroke="black" stroke-width="0.359192" stroke-miterlimit="10" stroke-linecap="square"/>
<path d="M251 620.606L313.955 638.118L351.727 583.063L282.477 568.747L251 620.606Z" stroke="black" stroke-width="0.359192" stroke-miterlimit="10" stroke-linecap="square"/>
<path d="M251 625.052L313.955 652.154L351.727 586.487L282.477 569.313L251 625.052Z" stroke="black" stroke-width="0.359192" stroke-miterlimit="10" stroke-linecap="square"/>
<path d="M251 630.537L313.955 660.709L351.727 600.244L282.477 580.397L251 630.537Z" stroke="black" stroke-width="0.359192" stroke-miterlimit="10" stroke-linecap="square"/>
<path d="M477.637 192.81L540.591 233.975L578.364 176.711L509.114 163.961L477.637 192.81Z" stroke="black" stroke-width="0.359192" stroke-miterlimit="10" stroke-linecap="square"/>
<path d="M477.637 209.93L540.591 245.85L578.364 181.134L509.114 166.255L477.637 209.93Z" stroke="black" stroke-width="0.359192" stroke-miterlimit="10" stroke-linecap="square"/>
<path d="M477.637 216.729L540.591 249.632L578.364 193.441L509.114 180.675L477.637 216.729Z" stroke="black" stroke-width="0.359192" stroke-miterlimit="10" stroke-linecap="square"/>
<path d="M477.637 237.466L540.591 262.869L578.364 203.603L509.114 189.678L477.637 237.466Z" stroke="black" stroke-width="0.359192" stroke-miterlimit="10" stroke-linecap="square"/>
<path d="M477.637 225.773L540.591 270.919L578.364 206.576L509.114 198.796L477.637 225.773Z" stroke="black" stroke-width="0.359192" stroke-miterlimit="10" stroke-linecap="square"/>
<path d="M477.637 253.892L540.591 272.367L578.364 208.662L509.114 204.477L477.637 253.892Z" stroke="black" stroke-width="0.359192" stroke-miterlimit="10" stroke-linecap="square"/>
<path d="M477.637 379.909L540.591 421.088L578.364 357.68L509.114 364.153L477.637 379.909Z" stroke="black" stroke-width="0.359192" stroke-miterlimit="10" stroke-linecap="square"/>
<path d="M477.637 403.062L540.591 425.745L578.364 364.318L509.114 372.846L477.637 403.062Z" stroke="black" stroke-width="0.359192" stroke-miterlimit="10" stroke-linecap="square"/>
<path d="M477.637 399.903L540.591 437.676L578.364 371.953L509.114 378.459L477.637 399.903Z" stroke="black" stroke-width="0.359192" stroke-miterlimit="10" stroke-linecap="square"/>
<path d="M477.637 409.381L540.591 452.128L578.364 381.486L509.114 368.248L477.637 409.381Z" stroke="black" stroke-width="0.359192" stroke-miterlimit="10" stroke-linecap="square"/>
<path d="M477.637 411.973L540.591 453.179L578.364 390.977L509.114 393.193L477.637 411.973Z" stroke="black" stroke-width="0.359192" stroke-miterlimit="10" stroke-linecap="square"/>
<path d="M477.637 445.65L540.591 470.495L578.364 398.142L509.114 402.842L477.637 445.65Z" stroke="black" stroke-width="0.359192" stroke-miterlimit="10" stroke-linecap="square"/>
<path d="M477.637 577.535L540.591 610.084L578.364 546.397L509.114 553.9L477.637 577.535Z" stroke="black" stroke-width="0.359192" stroke-miterlimit="10" stroke-linecap="square"/>
<path d="M477.637 598.04L540.591 619.873L578.364 560.291L509.114 550.39L477.637 598.04Z" stroke="black" stroke-width="0.359192" stroke-miterlimit="10" stroke-linecap="square"/>
<path d="M477.637 606.451L540.591 635.543L578.364 572.016L509.114 570.301L477.637 606.451Z" stroke="black" stroke-width="0.359192" stroke-miterlimit="10" stroke-linecap="square"/>
<path d="M477.637 607.457L540.591 635.863L578.364 574.268L509.114 581.716L477.637 607.457Z" stroke="black" stroke-width="0.359192" stroke-miterlimit="10" stroke-linecap="square"/>
<path d="M477.637 611.844L540.591 648.705L578.364 592.639L509.114 575.063L477.637 611.844Z" stroke="black" stroke-width="0.359192" stroke-miterlimit="10" stroke-linecap="square"/>
<path d="M704.272 206.099L767.227 237.168L805 165.243L735.75 154L704.272 206.099Z" stroke="black" stroke-width="0.359192" stroke-miterlimit="10" stroke-linecap="square"/>
<path d="M704.272 216.98L767.227 251.423L805 186.816L735.75 181.778L704.272 216.98Z" stroke="black" stroke-width="0.359192" stroke-miterlimit="10" stroke-linecap="square"/>
<path d="M704.272 225.532L767.227 256.103L805 190.587L735.75 182.234L704.272 225.532Z" stroke="black" stroke-width="0.359192" stroke-miterlimit="10" stroke-linecap="square"/>
<path d="M704.272 225.698L767.227 266.8L805 198.427L735.75 197.254L704.272 225.698Z" stroke="black" stroke-width="0.359192" stroke-miterlimit="10" stroke-linecap="square"/>
<path d="M704.272 241.473L767.227 271.172L805 209.942L735.75 212.384L704.272 241.473Z" stroke="black" stroke-width="0.359192" stroke-miterlimit="10" stroke-linecap="square"/>
<path d="M704.272 259.856L767.227 284.398L805 218.928L735.75 224.911L704.272 259.856Z" stroke="black" stroke-width="0.359192" stroke-miterlimit="10" stroke-linecap="square"/>
<path d="M704.272 385.903L767.227 423.873L805 358.478L735.75 359.924L704.272 385.903Z" stroke="black" stroke-width="0.359192" stroke-miterlimit="10" stroke-linecap="square"/>
<path d="M704.272 402.984L767.227 434.43L805 371.417L735.75 373.083L704.272 402.984Z" stroke="black" stroke-width="0.359192" stroke-miterlimit="10" stroke-linecap="square"/>
<path d="M704.272 420.572L767.227 442.382L805 378.762L735.75 382.105L704.272 420.572Z" stroke="black" stroke-width="0.359192" stroke-miterlimit="10" stroke-linecap="square"/>
<path d="M704.272 433.365L767.227 452.769L805 391.356L735.75 386.701L704.272 433.365Z" stroke="black" stroke-width="0.359192" stroke-miterlimit="10" stroke-linecap="square"/>
<path d="M704.272 424.492L767.227 466.914L805 401.555L735.75 394.794L704.272 424.492Z" stroke="black" stroke-width="0.359192" stroke-miterlimit="10" stroke-linecap="square"/>
<path d="M704.272 437.946L767.227 471.98L805 409.471L735.75 391.513L704.272 437.946Z" stroke="black" stroke-width="0.359192" stroke-miterlimit="10" stroke-linecap="square"/>
<path d="M704.272 588.893L767.227 609.451L805 546.575L735.75 555.158L704.272 588.893Z" stroke="black" stroke-width="0.359192" stroke-miterlimit="10" stroke-linecap="square"/>
<path d="M704.272 581.473L767.227 620.446L805 563.881L735.75 568.057L704.272 581.473Z" stroke="black" stroke-width="0.359192" stroke-miterlimit="10" stroke-linecap="square"/>
<path d="M704.272 602.341L767.227 626.989L805 574.337L735.75 556.165L704.272 602.341Z" stroke="black" stroke-width="0.359192" stroke-miterlimit="10" stroke-linecap="square"/>
<path d="M704.272 621.257L767.227 646.755L805 583.306L735.75 564.118L704.272 621.257Z" stroke="black" stroke-width="0.359192" stroke-miterlimit="10" stroke-linecap="square"/>
<path d="M704.272 619.699L767.227 646.877L805 589.359L735.75 580.216L704.272 619.699Z" stroke="black" stroke-width="0.359192" stroke-miterlimit="10" stroke-linecap="square"/>
<path d="M704.272 614.987L767.227 661.094L805 597.875L735.75 600.044L704.272 614.987Z" stroke="black" stroke-width="0.359192" stroke-miterlimit="10" stroke-linecap="square"/>
<WCB layer="0" node="0" lastpath="0" lastpathnc="0" lastknownposx="0" lastknownposy="0" pausedposx="0" pausedposy="0" randseed="0" row="0" application="Axidraw"/></svg>